M48
;Layer_Color=9474304
;FILE_FORMAT=4:4
METRIC,LZ
;TYPE=PLATED
T01F00S00C0.3000
T02F00S00C0.5000
T05F00S00C0.8000
T06F00S00C0.9000
T08F00S00C1.0000
T09F00S00C1.0160
T10F00S00C1.0200
T11F00S00C1.0500
%
T01
X00117755Y00832828
Y0084265
X00118774Y00855561
X00137789Y00843407
X00139927Y00832828
X00165497
X00161548Y00840078
X0017055Y00848078
X00169275Y00860752
X00170266Y00879606
X00170816Y00888946
X00197636Y00893289
Y00880805
X00197715Y00905912
X00198934Y00924945
X00189708Y009432
X00194007Y00950724
X00197956Y00955758
X0019704Y00981241
X00173727Y00962978
X00170829Y00958576
X00166423Y00942732
X00152468Y00944277
X00146938Y00943036
X00143218Y00950463
X00145084Y00963011
X00143226Y00976151
X00143432Y00991912
X00153556Y00995738
X00173862Y01000128
X00128526Y00994708
X0012236Y00990108
X00121769Y00980683
X00114361Y00994708
X00119586Y00958589
X00123066Y00951147
X00113897Y009432
X00119717Y00921225
X00148284Y00903624
X00137789Y00892169
X00143391Y00869176
X00145862Y0081133
X00188247Y00833079
X00199177Y00848228
X00213984Y00833441
X00238897Y00833128
X00243671Y00815012
X00270937Y00811292
X00266292Y00833328
X00274206Y00843798
X00266192Y00857679
X00277209Y00866318
X002759Y00876309
X00273706Y00883691
X00276073Y00889848
X00273601Y00913035
X00275835Y00926826
X00297516Y00926049
X00298496Y0093803
X00295602Y00947462
X00318988Y00946835
X00326297Y00932047
X00338046Y00943115
X00342439Y00947598
X00365359Y00947019
X00370047Y00940636
X003771Y0094695
X00394046Y00942232
X00416871Y00955758
X00438076
X00424752Y00920082
X00424595Y00912093
X00424186Y00895897
X00424403Y00887808
X00424314Y00880152
X00424189Y00872013
X00424378Y0086423
X00409163Y00865818
X00393778Y00857263
X00393047Y00839041
X00402046Y00839012
X00398839Y00833791
X00377164Y00840489
X00368595Y00833079
X00369681Y00854394
X00350687Y00849898
X00342275Y00833079
X003172Y00830413
X00293481
X00305417Y00863248
X00306397Y00888648
X00303099Y00896217
X00325237Y00896406
X00308777Y00914755
X00341426Y00920788
X00352359Y00923765
X00352871Y01000128
X003771Y00992167
X00322338Y00994249
X00305573Y00991732
X00298147Y00996137
X00292072Y00991135
X00289579Y009672
X00276871
X00271986Y00952767
X00254047Y00945968
X00246608Y00947605
X00218715Y0094678
X00214046Y00940772
X00174233Y00920228
X00250455Y00896228
X00242681Y00854394
X00264097Y0077415
X0027585
X00268701Y00694078
X00353404Y00696136
X00352796Y00708228
X00371084Y00732916
X003696Y0076815
X00378808Y00812511
X004263Y008391
X00409163Y00903399
X00461582Y00904182
X00455812Y00761812
X00399976Y00695078
X00326786Y00975685
X00246872Y0098558
X00244871Y00993947
X00236897Y00993386
X00102821Y00992613
X00093604Y00987439
X0008906Y00990108
X0009405Y0097782
X00074115Y009741
X00072345Y00947541
X00065897Y00942614
X00050566Y00941828
X00046777Y00931338
X00052623Y00917156
X00068176Y00915502
X00088937Y00920821
X00097897Y00931675
X00089897Y0094223
X00042553Y00952462
X00044904Y00960545
X00052282Y00964287
X00045628Y00978581
X00050566Y00989674
X00049027Y00994714
X00044749Y00998897
X00030414Y00996418
X00024813Y00997119
X00017373Y00997394
X00016858Y00988798
X00012017Y00992229
X-00009049Y00989305
X-00023277Y00989937
X-00035419Y00988323
X-00034983Y00994973
X-00032814Y00979429
X-00030668Y00967103
X-00030452Y00950471
X-00035632Y00949498
X-00025953Y0094231
X-00030017Y0092445
X-0002365Y00922504
X-00007084
X00015318
X00022042Y00926238
X00020026Y00937596
X00021757Y00945696
X00014317Y00945698
X00028992Y00944818
X00021583Y00960959
X00019089Y00968318
X00006226
X-00000435Y00968643
X-00003484Y00961028
X-00011725Y00968643
X-00005621Y00974834
X00032711Y00968327
X00045851Y00902755
X00050856Y00894122
X00063078Y00893127
X00068176Y0088246
X00072221Y00872896
X00068917Y00849478
X00063425Y00832748
X00086947Y00833079
X00096957Y00838988
X000987Y0081105
X0004395Y008124
X00038245Y00832828
X00050409Y00844575
X00043057Y00856228
X00040546Y00864078
X0004067Y00871748
X00040546Y00879748
X00017879Y00880009
X00017589Y00864357
X-00003672Y00868077
X-00004832Y00853198
X-00029975
X-00029394Y00868077
X-0002908Y00896743
X-00030925Y00906144
X-00039511Y00920604
X-00059242Y00915441
X-00055522Y00903647
X-00056345Y00880114
X-00079763Y00895119
X-00108408Y00897745
X-00109323Y00905467
Y00913687
X-00109324Y00887548
X-00109323Y00879967
X-00109324Y00867948
X-00110066Y00856489
X-00109014Y00844339
X-00115523Y00833083
X-00139417Y00832898
X-00136376Y00842598
X-001558Y00844216
X-00166891Y00833079
X-00192809Y00832879
X-00217822Y00833179
X-00210128Y00848093
X-00211572Y00859928
X-00224823Y00863648
X-00235054Y00856215
X-00230152Y00844947
X-00253469Y00864923
X-00254786Y00870026
X-00255028Y00895862
X-00250933Y00892546
X-00251764Y00914748
X-00233983Y00904141
X-00232452Y0089846
X-00224006Y00895438
X-00208508Y00895778
X-00212753Y00910459
X-0021736Y00918978
X-00234034Y00927898
X-00232931Y0094468
X-00227726Y00943852
X-00213812Y00943445
X-00207842Y00952258
Y00966022
X-0020022Y00944818
X-0018925Y00939929
X-00180041Y00943649
X-00166374Y00944801
X-00157478Y00948891
X-0015748Y00962623
X-00158934Y0097577
X-00175129Y00996141
X-00183761Y00990278
X-00233101Y00995586
X-00252078Y009951
X-00252874Y00968598
X-00243304Y0096713
X-00234034Y00956154
X-00261112Y00945815
X-00286687Y00951805
X-00283625Y00916799
X-00284807Y00904447
X-00283837Y00899267
X-00284793Y00883528
X-00283625Y00875899
Y00869053
X-0026095Y00818478
X-00238704Y00757228
X-00239103Y00730808
X-00239304Y00708228
X-00238953Y00695078
X-0021525Y0069495
X-001836Y0080715
X-00176887Y0081274
X-0015952Y00808797
X-00151894Y00812517
X-00150346Y00863519
X-00134914Y00880535
X-00134936Y00891301
X-00136015Y00907417
X-00156002Y00900408
X-00161646Y00892968
X-00179733Y0089229
X-00187173Y00911669
X-00156328Y00920228
X-00136897Y00946764
X-00129126Y00949053
X-00128681Y00941613
X-00104843Y00942265
X-00099303Y00941828
X-00081954Y00941549
X-00080906Y00952734
X-00084626Y00959793
X-00080906Y00969111
X-00081418Y00978559
X-00081632Y00985999
X-00108022Y00986674
X-00110922Y0099597
X-0010466Y00998693
X-00134625Y00997517
X-00134284Y0096252
X-00106549Y00953504
X-00057263Y00950284
X-00057954Y00940943
X-00049956Y00939928
X-00046112Y00969634
X-00058859
X-00067902Y00970219
X-00055893Y00988323
X-00014529Y00892703
X-00004101Y00900828
X00018117Y00902619
X00019158Y00896228
X00010265Y00889748
X00013534Y00832828
X00013471Y00813954
X0002025Y0081612
X-00009953Y00809824
X-00014253Y00833079
X-00040453
X-000411Y00816066
X-00033954Y00813954
X-00063815Y00832898
X-00090428Y00833079
X-00100766Y00822741
X-00079493Y00848228
X-000865Y00757
X-00086603Y00732228
X-00183333Y0085884
X-00183453Y00867457
X-00293975Y0086867
X-00294714Y00895108
X-00308552Y00899798
X-00293998Y00943436
X-00306391Y00966234
X-00288527Y00976218
X-00288061Y00989526
X-00318153Y00990001
X-00315129Y0099465
X-00345173Y00968197
X-00341954Y00947084
X-00329954
X-003603Y009504
X-00359294Y00919915
X-0036555Y009102
X-0036975Y00896078
X-0036535Y00889193
X-00388769Y00888078
Y00879728
X-00388927Y00872138
X-00389324Y00864078
X-00388769Y00848078
X-0036975Y00864078
X-00390652Y00896078
X-00388769Y009039
X-00375584Y00926008
X-0039771Y00955758
X-00369887Y00973661
X-00306791Y00843125
Y0081274
X-00318153Y00813
X-00313926Y00818483
X-00308494Y01020784
X-00294472Y01020129
X-00294506Y01069484
X-003303Y01093486
X-00362587Y01091079
X-00369322Y01098519
X-00363223Y01105048
X-0035805Y0112545
X-00341389Y011448
X-003345Y011544
X-00326696
X-00304853Y0115185
X-00310636Y01139667
X-00306557Y0112478
X-00332705Y01180208
Y01214408
X-0032445Y012399
Y01262671
X-0032995Y01285322
X-00337994
X-003438
X-00332597Y01329197
X-00323276Y01323848
X-00323461Y01341092
X-00323408Y01348902
X-0032357Y01357008
X-00323369Y01365357
X-0032357Y01373129
X-00317567Y0136861
X-00318457Y0136117
X-00318461Y01353103
X-00318405Y01344997
X-0030025Y01324042
X-00296058Y01320848
X-00292111Y01324356
X-00288044Y01320848
X-00292153Y01265411
Y01236219
X-00297924Y01379712
X-00303049Y01380939
X-00323454Y01384146
X-003708Y01382679
X-00369015Y0108189
X-0036933Y01065145
X-00367734Y01055572
X-00369258Y01049328
Y0103282
X-00369015Y01025328
X-00374762Y01002528
X-00384362Y01002474
X-00344304Y01010828
X-0033402Y01046155
X-00361937Y01061369
X-0042675Y01121865
X-00451081Y01144387
X-00284834Y0115185
X-00262853Y01168661
X-00256055Y01168705
X-00247724Y01168661
X-00232922Y01157494
X-00233788Y01150054
X-00234058Y01128456
X-00227103Y01121528
X-00215282Y0112591
X-00188838Y01126598
X-00192652Y01117728
X-00181413Y01109492
X-00183363Y01086115
X-00181413Y01071549
X-00157021Y01073913
X-00157356Y01065763
X-00157021Y01053194
X-00165438Y01042411
X-00141993Y01041248
Y01046518
X-00135799Y01060592
Y01072837
X-00138562Y01091971
X-00157964Y01089397
X-00160074Y01126787
X-00169096Y01122618
X-00172631Y01168571
X-0017942Y01168336
X-00185509Y01168034
X-00191698Y01168411
X-00192659Y0115362
X-00185082Y01156599
X-002043Y011499
X-00207842Y01102056
X-00217695Y01092328
X-00230459Y01095363
X-00235203Y01107376
X-002575Y01103386
X-00257385Y01120646
X-00266821Y01117728
X-00260505Y01088164
X-00261477Y01073328
X-0025378Y01071969
X-00230023Y01073518
X-00205641Y01074458
X-00207296Y01028288
X-00181257Y01029449
X-00179477Y01022009
X-00157021Y01021108
X-00114953Y01017478
X-00110134Y01021478
X-00111522Y01039257
X-00104199Y01048631
X-00090304Y01044124
X-00078251Y01044477
X-00064174Y01042409
X-00054715Y01046232
X-00032077Y01049471
X-00010734Y01041478
X-00003238Y01045507
X-00003293Y0105351
X-00010629Y01065899
X-00008368Y01073269
X0001308Y01066832
X0002052Y01073808
X00020103Y0108132
X00022003Y01103081
X00021441Y01119066
X00012101Y01119628
X00025723Y01125306
X0002469Y01142582
X-000006Y01141447
Y011544
X-00009314Y01154279
X00007646Y0116685
X000168
X00022457
X00051666Y01157999
X00052927Y01144498
X00063604
X00067526Y01157999
X00083602
X0009009
X00096871
X00091181Y01122296
X00079641Y01121528
X00094593Y01107522
X00046932Y01105143
X00047946Y01121815
X00039294Y01117332
X00043196Y01133558
X0004609Y01081319
X00046188Y01073811
X00049541Y01066407
X00048943Y01047735
X00021292Y01049808
X00020659Y01041478
X00023461Y01027708
X00025346Y01022182
X00026887Y01002428
X00036196Y01011098
X000447Y01006859
X00061578Y01010579
X00069946Y01016867
X00072871Y0102495
X00070637Y01034451
X0009161Y01030973
X00099217Y01047395
X00029501Y01066748
X-00006002Y01033252
X-00002498Y01018749
X-00013383Y01019043
X-00028412Y01021126
X00011332Y01010728
X-00083471Y01033315
X-00082718Y01061417
X-000799Y01072651
X-00090759Y01072448
X-00110499Y01072661
X-00108907Y01081657
X-00110499Y01089733
X-00110732Y01097904
X-001137Y011226
X-00084569Y01122439
X-00083614Y01140779
X-00078782Y01157369
X-0005895Y01150814
X-000516Y0112395
X-00053242Y01108158
X-00058096Y01089397
X-00054376Y01072651
X-00039835Y01093627
X-00023273Y01101815
X-00026888Y01123346
X-00030226Y01142443
X-00040015Y0119145
X-0008218Y01193662
X-0010395Y011991
X-00099325Y01224699
X-00092795Y01224723
X-00086874Y0122453
X-00082421Y01238359
X-00067812Y01230577
X-00057224Y0122825
X-00005054Y01223578
X00014087Y0123291
X00041019Y01235274
X00051371
X0006726
X00065173Y01220076
X00064156Y01187751
X00072456Y01179488
X0008715Y012327
X00106046Y01257578
X00106949Y0129365
X00100322Y01297545
X00076047Y01280078
X00051371Y01251695
X00020346Y01278829
X-00014204Y01368028
X-000105Y013938
X00076047Y01396578
Y01380728
X0009645Y0138615
X0005652Y01368028
X-00120264Y01369015
X-00120127Y01351823
X-0010279Y01347454
X-00165403Y01356022
X-00155653Y01367272
X-00156252Y013764
X-00221991Y01373177
X-00221957Y01381177
X-00221867Y01389177
X-00227202Y01393238
Y01385082
X-00228027Y01377177
X-00227882Y01369177
X-0022785Y01361178
Y01349178
X-00222Y01353177
X-00247924Y01360228
X-00248324Y01373474
X-00262915Y01394499
X-00268044Y01393289
X-00280044Y01341092
X-0028393Y01324141
X-00272055Y01325392
X-00263446Y01320848
X-002664Y01316249
X-00248044Y01320819
X-00252044Y01325031
X-00259258Y01265411
X-00266753
X-00241765Y01265419
X-00236306Y01269083
X-0023145Y0127215
X-00226741Y01275076
X-0022095Y01275059
X-00214035Y01275061
X-00196482Y01275059
X-001845Y012792
X-00111025Y01280799
X-0009504Y0125317
X-001233Y0123885
X-001254Y011679
X-00133184Y01168784
X-0013845Y01168992
X-0014372
X-0015005Y01168832
X-0015856Y01168779
X-00165387Y01168631
X-00153693Y01179828
X-00131575Y01155325
X-0012885Y01150814
X-00134948
X-00104073Y01155269
X-00079317Y01101067
X-00081764Y01089397
X-00192803Y01010579
X-00217922
X-00243053
X-00265616Y01010456
X-00255815Y01020784
X-00282118
X-00285838Y01015031
X-00284815Y0105326
X-00284796Y01069692
X-00283315Y01077937
X-00261477Y01047098
X-00235264Y01049274
X-00227633Y01041248
X-00256785Y01199075
X-00279209Y01198149
X-00266753Y01236219
X-00260113
X-00276323Y01247817
X-00220085Y01239324
Y0122894
X00112588Y01192293
X00120871Y01157999
X00139142Y01157708
X00150352Y01157317
X001539Y011511
X0017055Y011478
X00152991Y01123626
X00162827Y01112308
X00168153Y010953
X00175991Y01097478
X00168281Y010851
X00148391Y01081098
X0013952Y01068788
X00123715Y01069729
X00117151Y01039324
X00138969Y01040944
Y01021608
X00124758Y01014407
X00165274Y01018513
X00168117Y01023266
X00169535Y01009417
X00164924Y01044037
X00174283Y01049597
X00173841Y01055248
X00172608Y01064522
X00197816Y01082129
X00196871Y01118504
X00220871Y0112158
X00221214Y01128169
X002421Y011253
X00251878Y0111679
X00299419Y01112308
X0030317Y01096123
X00281904Y01092328
X0027368Y01062993
X00275296Y01054883
X00250474Y01048384
Y01025785
X002504Y01018345
X00248437Y01012132
X0027368Y01015656
X00296815Y01005403
X00304644Y01021533
X00305183Y01041699
X00340696Y01045419
X00330064Y01066112
X00316847Y01073188
X00322915Y01081353
X00322916Y01102936
X00342027Y0112483
X00359104Y0112051
X00376146
X00372993Y0112593
X00392871Y0112051
X00400871Y01097478
X00408871
X00423576Y01089041
X0042344Y01081456
X00423377Y010731
X00423503Y01065763
X00423228Y01057628
X00423158Y01049597
Y01041329
X00422555Y01025559
X00422772Y01017575
X00408871Y01022891
X00400871Y01010228
X00390994Y01010148
X00377682Y01018606
X00366391Y01010148
X00344553Y01014131
X00320116Y01010495
X00405Y01041329
X00431047Y01121594
X0044258Y0112395
X0043875Y0116565
X004149Y0116265
X003687Y01165811
X00356449Y011589
X0035025
X00342098Y01158946
X00334888Y011589
X00334206Y01148112
X00368502Y01189497
X00374295Y01224541
X00329396Y01248078
X00316696Y01236895
Y01265481
X00342096Y01267198
X00344566Y01309235
X00340566Y01313117
X00324566Y013135
X00304457Y013131
X00300737Y01308968
X00292566
X0029655Y013131
X00320566Y01330646
X00331642
X00329924Y01335628
X00363114Y01339348
X00368767Y01343348
X00368693Y01355392
X00369022Y01363348
X00369177Y01371349
Y01379349
X00363924Y01375453
X00363602Y01367348
X00363475Y0135947
X00363344Y01351402
X00378184Y01347278
X00392032Y01321906
X00358206Y01324944
X00272806Y01335348
X00268729Y01331457
X00268623Y01339348
X00272939Y01343443
X00272914Y01355348
X00268749Y01351348
X00261095Y01347348
X0025695Y013278
X0024555Y013218
X00236985Y01308968
Y01296268
X0023445Y01248078
X00225812Y01248066
X0021625
X00219996Y01242064
X0022965Y01242
X00247576Y01248078
X00263546
X00188517Y01264993
X0014235Y0126435
X00144Y0122325
X00128871Y01124608
X00113686Y0112062
X00154896Y01097478
X00197787Y01027559
X00198124Y01021961
X00226297Y01180278
X0021555Y0133125
X0017445Y013374
X00153904Y01345647
X00197047Y01366078
X00219996Y01375258
X0023057Y01383348
X00241517Y01391636
X00268087Y01375628
X00268195Y01367607
X00272904Y0137152
X00297957Y01383348
X00434767Y01303009
Y012963
X0037964Y01410836
X003678Y014493
X0034815Y0148695
X003381Y01504367
X003333Y0157005
X0033595Y01577311
X0034533Y0158118
X00270306Y01533907
X0025125Y0152445
X0024471
X00219466Y01533466
X00209648Y01518763
X00207636Y01507124
X00195376Y01521361
X00175118
X00169848
X001444Y01505079
Y01498823
X00178546Y01478166
X00182546Y01474653
X002172Y0146805
X0023415Y014823
X00264823Y01447338
X00303808Y0146425
X00316533Y01435167
X00316566Y01420108
X00336566Y01399917
X0023057Y01415439
X00197047Y01413578
X00138856Y01434968
X00169837Y01589678
Y01615078
X00501829Y01452689
Y01443689
X00090907Y01418984
X00040047Y01406128
X-000396Y0140625
X-0009885Y01430878
X-00165403Y01399464
X-00211137Y01413068
X-00215908Y01415307
X-0023438Y01429958
X-00244145Y014445
X-00249466
X-00252044Y01412212
X-00248044Y01408297
X-00256044Y01408031
X-00280044
X-00284151Y01411712
X-0018555Y01501078
X-00164479Y0151094
X-00152453Y0150795
X-00146643Y01526078
X-00152453Y0154695
X-00171644Y01540103
X-00164479Y01562693
X-00146657Y01578578
X-00168825Y01592603
X-00187081Y0162088
X-00144Y016344
X-00099958Y01635549
X-00015049Y01623545
X00020547Y01636618
X00053393Y01589488
X00064047Y01566578
Y01549868
X00025922Y01553878
Y01541278
X0001575Y0153915
X0000975Y0153825
X00025922Y01528578
X0004335Y01521361
X-00051514Y01516578
X-000516Y01542807
X-00063454Y01535578
X-000633Y0157245
X-000516Y0156285
X-00294308Y01434275
T02
X00053393Y01602188
T05
X00337547Y01644078
X00357547
X00377547
T06
X-00025933Y01348908
X-00000533
X00024867
X00050267
Y01425108
X00024867
X-00000533
X-00025933
T08
X00406301Y01598709
X00420808Y01584942
X00429017Y01622647
X00443524Y01608879
X00472539Y01581345
X00487047Y01567578
X00464331Y01543641
X00449823Y01557408
T09
X-00163093Y01308268
X-00137693
X-00112293
X-00086893
X-00061493
X-00036093
X-00010693
X00014707
X00040107
X00065507
X00090907
X00116307
X00141707
X00167107
X00192507
Y01460668
X00167107
X00141707
X00116307
X00090907
X00065507
X00040107
X00014707
X-00010693
X-00036093
X-00061493
X-00086893
X-00112293
X-00137693
X-00163093
T10
X00487546Y00925478
Y00950878
Y00976278
Y01001678
Y01027078
X00488547Y01157378
Y01182778
Y01208178
Y01233578
Y01258978
T11
X-00439494Y00931628
X-00414094
Y00957028
X-00439494
Y00982428
X-00414094
Y01007828
X-00439494
Y01033228
Y01058628
X-00414094
Y01033228
Y01084028
X-00439494
Y01109428
X-00414094
Y01134828
X-00439494
Y01160228
X-00414094
Y01185628
X-00439494
Y01211028
X-00414094
Y01236428
X-00439494
Y01261828
X-00414094
Y01287228
Y01312628
Y01338028
Y01363428
Y01388828
X-00439494
Y01363428
Y01338028
Y01312628
Y01287228
M30
