M48
;Layer_Color=9474304
;FILE_FORMAT=4:4
METRIC,LZ
;TYPE=PLATED
T03F00S00C0.6000
T04F00S00C0.6500
T07F00S00C0.9000
%
G90
G05
T03
G00X-00328424Y01133558
M15
G01X-00319424
M16
G00X00203106Y01543103
M15
G01Y01554103
M16
G00X00203106Y01586403
M15
G01Y01594403
M16
G00X00289507Y01586403
M15
G01Y01594403
M16
G00X00289507Y01543103
M15
G01Y01554103
M16
T04
G00X00129276Y00803358
M15
G01X00137276
M16
G00X00154676Y00803358
M15
G01X00162676
M16
G00X00180076Y00803358
M15
G01X00188076
M16
G00X00205476Y00803358
M15
G01X00213476
M16
G00X00230876Y00803358
M15
G01X00238876
M16
G00X00256276Y00803358
M15
G01X00264276
M16
G00X00281676Y00803358
M15
G01X00289676
M16
G00X00307076Y00803358
M15
G01X00315076
M16
G00X00332476Y00803358
M15
G01X00340476
M16
G00X00357876Y00803358
M15
G01X00365876
M16
G00X00383276Y00803358
M15
G01X00391276
M16
G00X00383276Y00955758
M15
G01X00391276
M16
G00X00357876Y00955758
M15
G01X00365876
M16
G00X00357876Y00981158
M15
G01X00365876
M16
G00X00332476Y00981158
M15
G01X00340476
M16
G00X00307076Y00981158
M15
G01X00315076
M16
G00X00281676Y00981158
M15
G01X00289676
M16
G00X00256276Y00981158
M15
G01X00264276
M16
G00X00230876Y00981158
M15
G01X00238876
M16
G00X00205476Y00981158
M15
G01X00213476
M16
G00X00180076Y00981158
M15
G01X00188076
M16
G00X00154676Y00981158
M15
G01X00162676
M16
G00X00129276Y00981158
M15
G01X00137276
M16
G00X00129276Y00955758
M15
G01X00137276
M16
G00X00154676Y00955758
M15
G01X00162676
M16
G00X00180076Y00955758
M15
G01X00188076
M16
G00X00205476Y00955758
M15
G01X00213476
M16
G00X00230876Y00955758
M15
G01X00238876
M16
G00X00256276Y00955758
M15
G01X00264276
M16
G00X00281676Y00955758
M15
G01X00289676
M16
G00X00307076Y00955758
M15
G01X00315076
M16
G00X00332476Y00955758
M15
G01X00340476
M16
G00X00383276Y00981158
M15
G01X00391276
M16
G00X00103876Y00981158
M15
G01X00111876
M16
G00X00078476Y00981158
M15
G01X00086476
M16
G00X00053076Y00981158
M15
G01X00061076
M16
G00X00027676Y00981158
M15
G01X00035676
M16
G00X00002276Y00981158
M15
G01X00010276
M16
G00X-00023124Y00981158
M15
G01X-00015124
M16
G00X-00048524Y00981158
M15
G01X-00040524
M16
G00X-00073924Y00981158
M15
G01X-00065924
M16
G00X-00099324Y00981158
M15
G01X-00091324
M16
G00X-00124724Y00981158
M15
G01X-00116724
M16
G00X-00150124Y00981158
M15
G01X-00142124
M16
G00X-00175524Y00981158
M15
G01X-00167524
M16
G00X-00200924Y00981158
M15
G01X-00192924
M16
G00X-00226324Y00981158
M15
G01X-00218324
M16
G00X-00251724Y00981158
M15
G01X-00243724
M16
G00X-00277124Y00981158
M15
G01X-00269124
M16
G00X-00277124Y00955758
M15
G01X-00269124
M16
G00X-00251724Y00955758
M15
G01X-00243724
M16
G00X-00226324Y00955758
M15
G01X-00218324
M16
G00X-00200924Y00955758
M15
G01X-00192924
M16
G00X-00175524Y00955758
M15
G01X-00167524
M16
G00X-00150124Y00955758
M15
G01X-00142124
M16
G00X-00124724Y00955758
M15
G01X-00116724
M16
G00X-00099324Y00955758
M15
G01X-00091324
M16
G00X-00073924Y00955758
M15
G01X-00065924
M16
G00X-00048524Y00955758
M15
G01X-00040524
M16
G00X-00023124Y00955758
M15
G01X-00015124
M16
G00X00002276Y00955758
M15
G01X00010276
M16
G00X00027676Y00955758
M15
G01X00035676
M16
G00X00053076Y00955758
M15
G01X00061076
M16
G00X00078476Y00955758
M15
G01X00086476
M16
G00X00103876Y00955758
M15
G01X00111876
M16
G00X00103876Y00803358
M15
G01X00111876
M16
G00X00078476Y00803358
M15
G01X00086476
M16
G00X00053076Y00803358
M15
G01X00061076
M16
G00X00027676Y00803358
M15
G01X00035676
M16
G00X00002276Y00803358
M15
G01X00010276
M16
G00X-00023124Y00803358
M15
G01X-00015124
M16
G00X-00048524Y00803358
M15
G01X-00040524
M16
G00X-00073924Y00803358
M15
G01X-00065924
M16
G00X-00099324Y00803358
M15
G01X-00091324
M16
G00X-00124724Y00803358
M15
G01X-00116724
M16
G00X-00150124Y00803358
M15
G01X-00142124
M16
G00X-00175524Y00803358
M15
G01X-00167524
M16
G00X-00200924Y00803358
M15
G01X-00192924
M16
G00X-00226324Y00803358
M15
G01X-00218324
M16
G00X-00251724Y00803358
M15
G01X-00243724
M16
G00X-00277124Y00803358
M15
G01X-00269124
M16
G00X-00302524Y00803358
M15
G01X-00294524
M16
G00X-00327924Y00803358
M15
G01X-00319924
M16
G00X-00353324Y00803358
M15
G01X-00345324
M16
G00X-00353324Y00955758
M15
G01X-00345324
M16
G00X-00353324Y00981158
M15
G01X-00345324
M16
G00X-00327924Y00981158
M15
G01X-00319924
M16
G00X-00302524Y00981158
M15
G01X-00294524
M16
G00X-00302524Y00955758
M15
G01X-00294524
M16
G00X-00327924Y00955758
M15
G01X-00319924
M16
G00X-00302524Y01133558
M15
G01X-00294524
M16
G00X-00353324Y01133558
M15
G01X-00345324
M16
G00X-00277124Y01133558
M15
G01X-00269124
M16
G00X-00251724Y01133558
M15
G01X-00243724
M16
G00X-00226324Y01133558
M15
G01X-00218324
M16
G00X-00200924Y01133558
M15
G01X-00192924
M16
G00X-00175524Y01133558
M15
G01X-00167524
M16
G00X-00150124Y01133558
M15
G01X-00142124
M16
G00X-00124724Y01133558
M15
G01X-00116724
M16
G00X-00099324Y01133558
M15
G01X-00091324
M16
G00X-00073924Y01133558
M15
G01X-00065924
M16
G00X-00048524Y01133558
M15
G01X-00040524
M16
G00X-00023124Y01133558
M15
G01X-00015124
M16
G00X00002276Y01133558
M15
G01X00010276
M16
G00X00027676Y01133558
M15
G01X00035676
M16
G00X00053076Y01133558
M15
G01X00061076
M16
G00X00078476Y01133558
M15
G01X00086476
M16
G00X00103876Y01133558
M15
G01X00111876
M16
G00X00129276Y01133558
M15
G01X00137276
M16
G00X00154676Y01133558
M15
G01X00162676
M16
G00X00180076Y01133558
M15
G01X00188076
M16
G00X00205476Y01133558
M15
G01X00213476
M16
G00X00230876Y01133558
M15
G01X00238876
M16
G00X00256276Y01133558
M15
G01X00264276
M16
G00X00281676Y01133558
M15
G01X00289676
M16
G00X00307076Y01133558
M15
G01X00315076
M16
G00X00332476Y01133558
M15
G01X00340476
M16
G00X00357876Y01133558
M15
G01X00365876
M16
G00X00383276Y01133558
M15
G01X00391276
M16
T07
G00X00247576Y00723658
M15
G01Y00730658
M16
G00X00247576Y00749058
M15
G01Y00756058
M16
G00X00399976Y00749058
M15
G01Y00756058
M16
G00X00399976Y00723658
M15
G01Y00730658
M16
G00X00095176Y00723658
M15
G01Y00730658
M16
G00X00095176Y00749058
M15
G01Y00756058
M16
G00X-00057224Y00748931
M15
G01Y00755931
M16
G00X-00057224Y00723658
M15
G01Y00730658
M16
G00X-00209624Y00723658
M15
G01Y00730658
M16
G00X-00209624Y00749058
M15
G01Y00756058
M16
G00X-00362024Y00749058
M15
G01Y00756058
M16
G00X-00362024Y00723658
M15
G01Y00730658
M16
G00X-00362024Y01180858
M15
G01Y01187858
M16
G00X-00362024Y01206258
M15
G01Y01213258
M16
G00X-00209624Y01206258
M15
G01Y01213258
M16
G00X-00209624Y01180858
M15
G01Y01187858
M16
G00X-00057224Y01180858
M15
G01Y01187858
M16
G00X-00057224Y01206258
M15
G01Y01213258
M16
G00X00095176Y01206258
M15
G01Y01213258
M16
G00X00095176Y01180858
M15
G01Y01187858
M16
G00X00247576Y01180858
M15
G01Y01187858
M16
G00X00247576Y01206258
M15
G01Y01213258
M16
G00X00399976Y01206258
M15
G01Y01213258
M16
G00X00399976Y01180858
M15
G01Y01187858
M16
M17
M30
